<svg xmlns="http://www.w3.org/2000/svg"  viewBox="0 0 40 40" width="40px" height="40px"><path fill="#98ccfd" d="M20,38.5c-11.158,0-14.53-1.913-15.355-2.567c0.867-1.375,3.747-6.599,3.853-15.433h8.328 c0.241,1.536,1.573,2.714,3.175,2.714s2.935-1.179,3.175-2.714h8.328c0.105,8.839,2.989,14.064,3.854,15.436 C34.548,36.577,31.188,38.5,20,38.5z"/><path fill="#4788c7" d="M31.012,21c0.19,7.942,2.6,12.943,3.673,14.789C33.493,36.508,29.833,38,20,38 S6.507,36.508,5.315,35.789C6.388,33.943,8.798,28.942,8.988,21h7.434c0.438,1.564,1.876,2.714,3.578,2.714s3.14-1.15,3.578-2.714 H31.012 M32,20h-9.286c0,1.499-1.215,2.714-2.714,2.714S17.286,21.499,17.286,20H8c0,10.461-4,16-4,16s1.92,3,16,3s16-3,16-3 S32,30.461,32,20L32,20z"/><path fill="#fff" d="M20,38.5c-1.593,0-3.098-0.784-4.024-2.098l-0.079-0.112l-0.125-0.056 c-2.516-1.128-4.263-3.321-5.193-6.519c0.583-2.598,0.893-5.695,0.919-9.216h5.327c0.241,1.536,1.573,2.714,3.175,2.714 s2.935-1.179,3.175-2.714h5.327c0.026,3.521,0.335,6.618,0.919,9.216c-0.93,3.198-2.677,5.39-5.193,6.519l-0.125,0.056 l-0.079,0.112C23.098,37.716,21.593,38.5,20,38.5z"/><path fill="#4788c7" d="M28.008,21c0.05,3.295,0.351,6.215,0.897,8.698c-0.896,2.984-2.538,5.029-4.881,6.08l-0.25,0.112 l-0.158,0.224C22.782,37.295,21.431,38,20,38s-2.782-0.705-3.615-1.886l-0.158-0.224l-0.25-0.112 c-2.344-1.051-3.985-3.096-4.881-6.08c0.546-2.482,0.847-5.403,0.897-8.698h4.43c0.438,1.564,1.876,2.714,3.578,2.714 s3.14-1.15,3.578-2.714H28.008 M29,20h-6.286c0,1.499-1.215,2.714-2.714,2.714S17.286,21.499,17.286,20H11 c0,4.204-0.394,7.365-0.937,9.73c0.878,3.11,2.597,5.657,5.505,6.96C16.55,38.084,18.165,39,20,39s3.45-0.916,4.432-2.31 c2.908-1.304,4.626-3.85,5.505-6.96C29.394,27.365,29,24.204,29,20L29,20z"/><path fill="#4788c7" d="M28 23l-6 .991C22.122 25.119 23.065 26 24.226 26 26.813 26 28 23 28 23zM12 23l6 .991C17.878 25.119 16.935 26 15.774 26 13.187 26 12 23 12 23zM31 16h-1v-1h1c2.989 0 3-3 3-3V7c0-2.967 2.943-2.978 2.943-2.978L37 4v1l0 0c0 0-2 .117-2 2v5C35 12 35.02 16 31 16z"/><path fill="#4788c7" d="M31,17h-1v-1h1c4.02,0,4-4,4-4v-2c0-2.967,1.943-2.978,1.943-2.978L37,7v1l0,0c0,0-1,0.117-1,2v2 C36,12,36.104,17,31,17z"/><path fill="#4788c7" d="M31 15h-1v-1h1c2.067 0 2-2 2-2V5c0-4.029 4-4 4-4l0 0v1l0 0c0 0-3 .08-3 3v7C34 12 33.989 15 31 15zM9 16h1v-1H9c-2.989 0-3-3-3-3V7c0-2.967-2.943-2.978-2.943-2.978L3 4v1l0 0c0 0 2 .117 2 2v5C5 12 4.98 16 9 16z"/><path fill="#4788c7" d="M9,17h1v-1H9c-4.02,0-4-4-4-4v-2c0-2.967-1.943-2.978-1.943-2.978L3,7v1l0,0c0,0,1,0.117,1,2v2 C4,12,3.896,17,9,17z"/><path fill="#4788c7" d="M9,15h1v-1H9c-2.067,0-2-2-2-2V5c0-4.029-4-4-4-4l0,0v1l0,0c0,0,3,0.08,3,3v7C6,12,6.011,15,9,15z"/><path fill="#b6dcfe" d="M20,23.5c-1.586,0-2.974-1.08-3.375-2.625L16.529,20.5H8.5V20c0-7.458,4.772-9.79,8.257-11.493 c1.398-0.683,2.6-1.271,3.243-2.065c0.643,0.794,1.845,1.382,3.243,2.065C26.728,10.21,31.5,12.542,31.5,20v0.5h-8.029 l-0.097,0.375C22.974,22.42,21.586,23.5,20,23.5z"/><path fill="#4788c7" d="M20,7.164c0.748,0.68,1.841,1.215,3.023,1.792C26.577,10.693,31,12.855,31,20h-7.141h-0.774 l-0.194,0.749C22.547,22.074,21.359,23,20,23s-2.547-0.926-2.891-2.251L16.915,20h-0.774H9c0-7.145,4.423-9.307,7.977-11.043 C18.159,8.379,19.252,7.845,20,7.164 M20,5.071C20,8.719,8,7.955,8,20v1h8.141c0.446,1.722,1.997,3,3.859,3s3.412-1.278,3.859-3H32 v-1C32,7.955,20,8.719,20,5.071L20,5.071z"/><path fill="#dff0fe" d="M20,23.5c-1.586,0-2.974-1.08-3.375-2.625L16.529,20.5H8.5V20c0-0.874,0.067-1.713,0.201-2.5h22.598 c0.134,0.787,0.201,1.626,0.201,2.5v0.5h-8.029l-0.097,0.375C22.974,22.42,21.586,23.5,20,23.5z"/><path fill="#4788c7" d="M30.869 18C30.956 18.637 31 19.307 31 20h-7.141-.774l-.194.749C22.547 22.074 21.359 23 20 23s-2.547-.926-2.891-2.251L16.915 20h-.774H9c0-.693.044-1.363.131-2H22 30.869M31.714 17H22 8.286C8.103 17.902 8 18.896 8 20v1h8.141c.446 1.722 1.997 3 3.859 3s3.412-1.278 3.859-3H32v-1C32 18.896 31.897 17.902 31.714 17L31.714 17zM37 1h.5C37.775 1 38 1.225 38 1.5v0C38 1.775 37.775 2 37.5 2H37V1zM3 2H2.5C2.225 2 2 1.775 2 1.5v0C2 1.225 2.225 1 2.5 1H3V2zM3 5H2.5C2.225 5 2 4.775 2 4.5v0C2 4.225 2.225 4 2.5 4H3V5zM3 8H2.5C2.225 8 2 7.775 2 7.5v0C2 7.225 2.225 7 2.5 7H3V8zM37 4h.5C37.775 4 38 4.225 38 4.5v0C38 4.775 37.775 5 37.5 5H37V4zM37 7h.5C37.775 7 38 7.225 38 7.5v0C38 7.775 37.775 8 37.5 8H37V7z"/><path fill="#dff0fe" d="M9.039,19h21.921c-0.045-0.721-0.141-1.384-0.277-2H9.317C9.181,17.616,9.085,18.279,9.039,19z"/></svg>